<mxfile host="www.draw.io" modified="2020-03-24T06:11:19.822Z" agent="Mozilla/5.0 (Macintosh; Intel Mac OS X 10_13_6) AppleWebKit/537.36 (KHTML, like Gecko) Chrome/80.0.3987.149 Safari/537.36" etag="Jf37LjeERj0zR3x3L9q9" version="12.9.0" type="github">
  <diagram id="wUpYCp4I_ln66o7LiVNV" name="Page-1">
    <mxGraphModel dx="892" dy="498" grid="1" gridSize="10" guides="1" tooltips="1" connect="1" arrows="1" fold="1" page="1" pageScale="1" pageWidth="827" pageHeight="1169" math="0" shadow="0">
      <root>
        <mxCell id="0" />
        <mxCell id="1" parent="0" />
        <mxCell id="FMmh-wdX_Ces5Y1Ref45-10" value="附加项方案 AdditionProg&lt;br&gt;CBOH_ADDITIONALPROG_3CH" style="rounded=1;whiteSpace=wrap;html=1;" vertex="1" parent="1">
          <mxGeometry x="240" y="140" width="180" height="60" as="geometry" />
        </mxCell>
        <mxCell id="FMmh-wdX_Ces5Y1Ref45-11" value="附加项方案明细 AdditionProgDtl&lt;br&gt;CBOH_ADDITIONALPROGDTL_3CH" style="rounded=1;whiteSpace=wrap;html=1;" vertex="1" parent="1">
          <mxGeometry x="240" y="280" width="180" height="60" as="geometry" />
        </mxCell>
        <mxCell id="FMmh-wdX_Ces5Y1Ref45-13" value="" style="endArrow=none;html=1;entryX=1;entryY=0.5;entryDx=0;entryDy=0;exitX=0;exitY=0.5;exitDx=0;exitDy=0;" edge="1" parent="1" target="FMmh-wdX_Ces5Y1Ref45-11">
          <mxGeometry width="50" height="50" relative="1" as="geometry">
            <mxPoint x="470" y="310" as="sourcePoint" />
            <mxPoint x="123" y="100" as="targetPoint" />
          </mxGeometry>
        </mxCell>
        <mxCell id="FMmh-wdX_Ces5Y1Ref45-15" value="门店 Store&lt;br&gt;CBOH_STORE_3CH" style="rounded=1;whiteSpace=wrap;html=1;" vertex="1" parent="1">
          <mxGeometry x="244" y="20" width="170" height="60" as="geometry" />
        </mxCell>
        <mxCell id="FMmh-wdX_Ces5Y1Ref45-16" value="" style="endArrow=none;html=1;entryX=0.5;entryY=0;entryDx=0;entryDy=0;exitX=0.5;exitY=1;exitDx=0;exitDy=0;" edge="1" parent="1" source="FMmh-wdX_Ces5Y1Ref45-15" target="FMmh-wdX_Ces5Y1Ref45-10">
          <mxGeometry width="50" height="50" relative="1" as="geometry">
            <mxPoint x="254" y="320" as="sourcePoint" />
            <mxPoint x="180" y="320" as="targetPoint" />
            <Array as="points" />
          </mxGeometry>
        </mxCell>
        <mxCell id="FMmh-wdX_Ces5Y1Ref45-19" value="1" style="endArrow=open;html=1;endSize=12;startArrow=diamondThin;startSize=14;startFill=1;edgeStyle=orthogonalEdgeStyle;align=left;verticalAlign=bottom;exitX=0.5;exitY=1;exitDx=0;exitDy=0;entryX=0.5;entryY=0;entryDx=0;entryDy=0;" edge="1" parent="1" source="FMmh-wdX_Ces5Y1Ref45-10" target="FMmh-wdX_Ces5Y1Ref45-11">
          <mxGeometry x="-0.5" y="10" relative="1" as="geometry">
            <mxPoint x="330" y="240" as="sourcePoint" />
            <mxPoint x="490" y="240" as="targetPoint" />
            <mxPoint as="offset" />
          </mxGeometry>
        </mxCell>
        <mxCell id="FMmh-wdX_Ces5Y1Ref45-22" value="附加项 Redfine&lt;br&gt;CBOH_REDEFINE_3CH" style="rounded=1;whiteSpace=wrap;html=1;" vertex="1" parent="1">
          <mxGeometry x="470" y="280" width="170" height="60" as="geometry" />
        </mxCell>
        <mxCell id="FMmh-wdX_Ces5Y1Ref45-23" value="菜品 PubItem&lt;br&gt;CBOH_PUBITEM_3CH" style="rounded=1;whiteSpace=wrap;html=1;" vertex="1" parent="1">
          <mxGeometry x="20" y="280" width="170" height="60" as="geometry" />
        </mxCell>
        <mxCell id="FMmh-wdX_Ces5Y1Ref45-24" value="" style="endArrow=none;html=1;entryX=1;entryY=0.5;entryDx=0;entryDy=0;" edge="1" parent="1" target="FMmh-wdX_Ces5Y1Ref45-23">
          <mxGeometry width="50" height="50" relative="1" as="geometry">
            <mxPoint x="240" y="310" as="sourcePoint" />
            <mxPoint x="430" y="320" as="targetPoint" />
          </mxGeometry>
        </mxCell>
      </root>
    </mxGraphModel>
  </diagram>
</mxfile>
